<?xml version="1.0" encoding="UTF-8"?>
<svg version="1.1" xmlns="http://www.w3.org/2000/svg" width="150" height="150">
<path d="M0 0 C12.26774576 0.05262535 12.26774576 0.05262535 17.02246094 2.91699219 C21.14521789 7.34744808 22.91253231 12.42264682 24.24560547 18.24414062 C24.52662109 17.01695313 24.80763672 15.78976563 25.09716797 14.52539062 C26.97141976 8.86176188 29.14508049 4.57092828 34.24560547 1.24414062 C45.29664571 -2.6491103 61.29102651 -3.10333281 72.24560547 1.24414062 C79.26079064 6.60173397 82.55856009 14.40332709 85.33642578 22.58691406 C86.16204129 25.2128019 86.16204129 25.2128019 87.36572266 27.40917969 C88.24560547 29.24414063 88.24560547 29.24414063 88.24560547 32.24414062 C83.47291605 32.77371301 78.99953584 33.0187766 74.24560547 32.24414062 C71.20168511 29.7261918 69.84991536 26.80299708 68.24560547 23.24414062 C67.46500694 21.92502793 66.67454209 20.61166103 65.87060547 19.30664062 C64.24560547 16.24414062 64.24560547 16.24414062 64.24560547 14.24414062 C56.98560547 14.24414062 49.72560547 14.24414062 42.24560547 14.24414062 C41.58560547 15.89414062 40.92560547 17.54414062 40.24560547 19.24414062 C38.45382359 22.3655706 36.58294215 25.43078548 34.70654297 28.50195312 C33.01050713 31.16757521 33.01050713 31.16757521 33.24560547 34.24414062 C34.06479019 36.11326776 34.06479019 36.11326776 35.21435547 38.03710938 C35.57980469 38.6793042 35.94525391 39.32149902 36.32177734 39.9831543 C37.02657227 41.19515503 37.02657227 41.19515503 37.74560547 42.43164062 C39.97310547 46.29882812 39.97310547 46.29882812 42.24560547 50.24414062 C49.50560547 50.24414062 56.76560547 50.24414062 64.24560547 50.24414062 C67.16430118 45.02457892 67.16430118 45.02457892 70.0793457 39.80297852 C70.44229736 39.15578857 70.80524902 38.50859863 71.17919922 37.84179688 C71.73692017 36.84418335 71.73692017 36.84418335 72.3059082 35.82641602 C73.24560547 34.24414062 73.24560547 34.24414062 74.24560547 33.24414062 C76.432 33.17155117 78.62060936 33.1604028 80.80810547 33.18164062 C82.60441406 33.19517578 82.60441406 33.19517578 84.43701172 33.20898438 C85.36384766 33.22058594 86.29068359 33.2321875 87.24560547 33.24414062 C87.94018555 34.86865234 87.94018555 34.86865234 88.24560547 37.24414062 C87.01391602 40.05322266 87.01391602 40.05322266 85.13232422 43.25195312 C84.80271194 43.81864716 84.47309967 44.38534119 84.13349915 44.96920776 C83.43548456 46.16432439 82.73157079 47.35601237 82.0222168 48.54443359 C80.93665031 50.36320157 79.86799324 52.19104583 78.80224609 54.02148438 C73.60397708 62.88576901 73.60397708 62.88576901 71.24560547 65.24414062 C65.2789389 66.09970478 59.26718831 66.28023066 53.24560547 66.43164062 C51.96322495 66.46523682 51.96322495 66.46523682 50.65493774 66.49951172 C36.61886012 66.704834 36.61886012 66.704834 31.52050781 63.56689453 C27.42586785 59.12582446 25.62894868 54.04565046 24.24560547 48.24414062 C23.70291016 49.13617188 23.16021484 50.02820313 22.60107422 50.94726562 C21.8785233 52.12962167 21.15586117 53.31190975 20.43310547 54.49414062 C20.07667969 55.08066406 19.72025391 55.6671875 19.35302734 56.27148438 C18.33229783 57.93836377 17.28941158 59.59161394 16.24560547 61.24414062 C15.86984375 61.94321533 15.49408203 62.64229004 15.10693359 63.36254883 C12.31802138 66.18182302 9.20212878 66.25246437 5.42138672 66.58398438 C4.64644867 66.65237518 3.87151062 66.72076599 3.0730896 66.79122925 C0.56777891 66.97274716 -1.93167997 67.09143264 -4.44189453 67.18164062 C-5.70602676 67.22942154 -5.70602676 67.22942154 -6.99569702 67.27816772 C-21.68650057 67.55932553 -21.68650057 67.55932553 -27.06396484 62.65722656 C-33.25804108 55.76427379 -39.45369966 44.5875739 -39.8918457 35.34448242 C-39.82380737 34.30481323 -39.82380737 34.30481323 -39.75439453 33.24414062 C-34.76681874 32.1445742 -30.68247117 31.74383822 -25.75439453 33.24414062 C-23.74862079 35.81323159 -22.55772202 38.70838705 -21.25439453 41.68164062 C-19.77746744 44.95919576 -18.37332454 47.74470553 -15.75439453 50.24414062 C-8.79512162 52.68900483 -0.99157633 51.936335 6.24560547 51.24414062 C6.51373047 50.53773437 6.78185547 49.83132812 7.05810547 49.10351562 C8.29541502 46.12420447 9.71183098 43.33162343 11.24560547 40.49414062 C11.76123047 39.52992187 12.27685547 38.56570312 12.80810547 37.57226562 C14.24560547 35.24414062 14.24560547 35.24414062 16.24560547 34.24414062 C13.61643258 27.46578944 10.74352811 20.1868352 5.24560547 15.24414062 C-1.46835885 12.90415647 -8.8787844 14.06166207 -15.75439453 15.24414062 C-16.39248047 16.38753906 -17.03056641 17.5309375 -17.68798828 18.70898438 C-18.5225364 20.19991866 -19.35717657 21.69080142 -20.19189453 23.18164062 C-20.61277344 23.93638672 -21.03365234 24.69113281 -21.46728516 25.46875 C-21.87011719 26.18740234 -22.27294922 26.90605469 -22.68798828 27.64648438 C-23.24570923 28.6440979 -23.24570923 28.6440979 -23.81469727 29.66186523 C-24.75439453 31.24414062 -24.75439453 31.24414062 -25.75439453 32.24414062 C-28.10753008 32.31685804 -30.46273122 32.3278493 -32.81689453 32.30664062 C-34.10724609 32.29761719 -35.39759766 32.28859375 -36.72705078 32.27929688 C-37.72607422 32.26769531 -38.72509766 32.25609375 -39.75439453 32.24414062 C-39.22012261 27.61934929 -38.00093628 24.4350337 -35.62939453 20.44335938 C-35.00548828 19.38439453 -34.38158203 18.32542969 -33.73876953 17.234375 C-33.08392578 16.14447266 -32.42908203 15.05457031 -31.75439453 13.93164062 C-31.09955078 12.82240234 -30.44470703 11.71316406 -29.77001953 10.5703125 C-22.43390196 -1.80559658 -13.68782873 0.22598947 0 0 Z " fill="#FCD012" transform="translate(50.75439453125,38.755859375)"/>
<path d="M0 0 C4.98757579 -1.09956642 9.07192336 -1.5003024 14 0 C16.00577374 2.56909096 17.19667251 5.46424643 18.5 8.4375 C19.9769271 11.71505514 21.38107 14.5005649 24 17 C30.95927291 19.4448642 38.7628182 18.69219438 46 18 C46.26554687 17.29488281 46.53109375 16.58976562 46.8046875 15.86328125 C48.06498967 12.84432214 49.53957994 10.04814924 51.125 7.1875 C51.66382813 6.21167969 52.20265625 5.23585938 52.7578125 4.23046875 C53.16773438 3.49441406 53.57765625 2.75835937 54 2 C55.32 2 56.64 2 58 2 C61.12871143 5.81173999 63.12961785 9.10976039 64 14 C62.06318263 20.31444115 57.68820875 27.31179125 53 32 C23.46176874 36.91676339 23.46176874 36.91676339 14.23608398 30.83770752 C7.13060093 24.38591329 2.61347956 14.03029201 0 5 C-0.13745117 2.1003418 -0.13745117 2.1003418 0 0 Z " fill="#D9241B" transform="translate(11,72)"/>
<path d="M0 0 C0.85533325 0.00012085 1.7106665 0.0002417 2.59191895 0.00036621 C9.81635049 0.07292734 16.51534862 0.31222852 22.41455078 4.79443359 C27.15175651 10.44998986 30.04362737 16.82862259 32.40332031 23.78027344 C33.22893582 26.40616128 33.22893582 26.40616128 34.43261719 28.60253906 C35.3125 30.4375 35.3125 30.4375 35.3125 33.4375 C30.53981058 33.96707239 26.06643037 34.21213598 21.3125 33.4375 C18.26857964 30.91955117 16.91680989 27.99635645 15.3125 24.4375 C14.53190148 23.1183873 13.74143662 21.80502041 12.9375 20.5 C11.3125 17.4375 11.3125 17.4375 11.3125 15.4375 C4.0525 15.4375 -3.2075 15.4375 -10.6875 15.4375 C-11.3475 17.0875 -12.0075 18.7375 -12.6875 20.4375 C-13.79404123 22.56259244 -14.94204672 24.66647584 -16.125 26.75 C-16.72183594 27.81863281 -17.31867188 28.88726562 -17.93359375 29.98828125 C-18.80177734 31.20064453 -18.80177734 31.20064453 -19.6875 32.4375 C-20.6775 32.4375 -21.6675 32.4375 -22.6875 32.4375 C-24.328125 30.42578125 -24.328125 30.42578125 -25.9375 27.75 C-26.47890625 26.87988281 -27.0203125 26.00976562 -27.578125 25.11328125 C-29.36305724 20.80807497 -27.90972532 18.01833454 -26.27807617 13.75366211 C-20.38489219 1.23087673 -13.24705085 -0.34257983 0 0 Z " fill="#005AA9" transform="translate(103.6875,37.5625)"/>
</svg>
